<?xml version="1.0" encoding="utf-8"?>
<!-- Generator: Adobe Illustrator 13.0.0, SVG Export Plug-In . SVG Version: 6.00 Build 14948)  -->
<!DOCTYPE svg PUBLIC "-//W3C//DTD SVG 1.1//EN" "http://www.w3.org/Graphics/SVG/1.1/DTD/svg11.dtd">
<svg version="1.1"
	 id="svg2" xmlns:inkscape="http://www.inkscape.org/namespaces/inkscape" xmlns:rdf="http://www.w3.org/1999/02/22-rdf-syntax-ns#" xmlns:cc="http://creativecommons.org/ns#" xmlns:dc="http://purl.org/dc/elements/1.1/" xmlns:sodipodi="http://sodipodi.sourceforge.net/DTD/sodipodi-0.dtd" sodipodi:docname="_svgclean2.svg" inkscape:version="0.48.3.1 r9886"
	 xmlns="http://www.w3.org/2000/svg" xmlns:xlink="http://www.w3.org/1999/xlink" x="0px" y="0px" width="31.525px"
	 height="30.185px" viewBox="47.5 48.612 31.525 30.185" enable-background="new 47.5 48.612 31.525 30.185" xml:space="preserve">
<g id="layer1" transform="translate(-226.18 -41.886)" inkscape:label="Camada 1" inkscape:groupmode="layer">
	<path id="path3847" inkscape:connector-curvature="0" fill="#FFFFFF" d="M287.265,109.498 M302.461,108.264
		c0,0-15.149,1.216-15.224,1.253 M287.265,109.498l-0.028,0.019l-6.999-17.625c0,0,0-0.001,0-0.002
		c-0.113-0.29-0.371-0.5-0.678-0.553l-4.826-0.824c0,0-0.002,0-0.002,0c-0.048-0.009-0.099-0.013-0.147-0.014l0.001,0
		c-0.461-0.006-0.863,0.355-0.903,0.816c-0.039,0.459,0.294,0.884,0.749,0.957c0.001,0.001,0.002,0,0.003,0l4.33,0.737l6.825,17.482
		l-2.188,1.716c-0.01,0.009-0.021,0.02-0.029,0.03c-0.003,0.001-0.003,0.006-0.006,0.008c-0.002,0.003-0.005,0.006-0.008,0.008
		c-1.025,0.793-1.522,2.012-1.242,3.133c0.004,0.011,0.008,0.021,0.013,0.031c0.366,0.857,0.957,1.418,1.725,1.689
		c-0.812,0.178-1.426,0.904-1.426,1.77c0,0.993,0.814,1.808,1.81,1.808c0.994,0,1.808-0.814,1.808-1.808
		c0-0.676-0.376-1.266-0.927-1.577l15.304,0.043c-0.51,0.322-0.85,0.891-0.85,1.534c0,0.993,0.814,1.808,1.809,1.808
		s1.809-0.814,1.809-1.808c0-0.641-0.338-1.203-0.842-1.525l1.357,0.003c0.002,0,0.002,0,0.004,0c0.488,0.008,0.9-0.4,0.902-0.889
		c0.002-0.489-0.41-0.897-0.896-0.895h-0.004l-18.585-0.056c-0.002,0-0.005,0.001-0.008,0c-0.016,0-0.033,0-0.048,0
		c-0.002,0-0.004,0-0.006,0c-0.486,0.028-0.771-0.046-0.936-0.148s-0.234-0.235-0.279-0.418c-0.08-0.317,0.06-0.892,0.624-1.312
		c0.004-0.002,0.006-0.007,0.011-0.009c0.003-0.002,0.007-0.003,0.011-0.006c0.004-0.002,0.007-0.005,0.011-0.007l3.088-2.43
		l15.583-1.239c0.42-0.033,0.768-0.364,0.816-0.783l1.207-9.982c0.031-0.25-0.049-0.501-0.213-0.69
		c-0.164-0.19-0.854-0.171-1.107-0.178l-1.418,9.952 M302.444,118.875c0,0.591-0.473,1.06-1.064,1.06
		c-0.59,0-1.063-0.469-1.063-1.06c0-0.592,0.473-1.063,1.063-1.063C301.971,117.812,302.444,118.283,302.444,118.875z
		 M285.299,118.875c0,0.591-0.472,1.06-1.063,1.06c-0.591,0-1.063-0.469-1.063-1.06c0-0.592,0.472-1.063,1.063-1.063
		C284.827,117.812,285.299,118.283,285.299,118.875z M300.803,118.894c0,0.321,0.258,0.575,0.576,0.575
		c0.322,0,0.578-0.254,0.578-0.575s-0.256-0.577-0.578-0.577C301.061,118.317,300.803,118.573,300.803,118.894z M283.658,118.894
		c0,0.321,0.257,0.575,0.578,0.575c0.321,0,0.577-0.254,0.577-0.575s-0.256-0.577-0.577-0.577
		C283.915,118.317,283.658,118.573,283.658,118.894z"/>
</g>
</svg>
